<svg width="31" height="30" viewBox="0 0 31 30" fill="none" xmlns="http://www.w3.org/2000/svg">
<path d="M10.1854 15C10.1854 12.2387 12.4232 9.9996 15.1846 9.9996C17.9459 9.9996 20.185 12.2387 20.185 15C20.185 17.7613 17.9459 20.0004 15.1846 20.0004C12.4232 20.0004 10.1854 17.7613 10.1854 15ZM7.48225 15C7.48225 19.254 10.9306 22.7023 15.1846 22.7023C19.4386 22.7023 22.8869 19.254 22.8869 15C22.8869 10.746 19.4386 7.29768 15.1846 7.29768C10.9306 7.29768 7.48225 10.746 7.48225 15ZM21.3918 6.99228C21.3917 7.34829 21.4971 7.69634 21.6948 7.99243C21.8924 8.28852 22.1735 8.51934 22.5023 8.65571C22.8312 8.79208 23.1931 8.82787 23.5423 8.75855C23.8915 8.68924 24.2123 8.51793 24.4641 8.2663C24.7159 8.01467 24.8875 7.69401 24.9571 7.34487C25.0267 6.99573 24.9912 6.6338 24.8551 6.30483C24.719 5.97587 24.4884 5.69466 24.1924 5.49675C23.8965 5.29885 23.5485 5.19314 23.1925 5.193H23.1918C22.7146 5.19322 22.257 5.38284 21.9195 5.7202C21.582 6.05756 21.3922 6.51508 21.3918 6.99228V6.99228ZM9.12457 27.2096C7.66213 27.143 6.86725 26.8994 6.33901 26.6936C5.63869 26.421 5.13901 26.0963 4.61365 25.5716C4.08829 25.047 3.76309 24.5478 3.49165 23.8475C3.28573 23.3195 3.04213 22.5244 2.97565 21.0619C2.90293 19.4808 2.88841 19.0058 2.88841 15.0001C2.88841 10.9944 2.90413 10.5208 2.97565 8.93832C3.04225 7.47588 3.28765 6.68232 3.49165 6.15276C3.76429 5.45244 4.08901 4.95276 4.61365 4.4274C5.13829 3.90204 5.63749 3.57684 6.33901 3.3054C6.86701 3.09948 7.66213 2.85588 9.12457 2.7894C10.7057 2.71668 11.1806 2.70216 15.1846 2.70216C19.1885 2.70216 19.6639 2.71788 21.2464 2.7894C22.7088 2.856 23.5024 3.1014 24.0319 3.3054C24.7322 3.57684 25.2319 3.90276 25.7573 4.4274C26.2826 4.95204 26.6066 5.45244 26.8793 6.15276C27.0852 6.68076 27.3288 7.47588 27.3953 8.93832C27.468 10.5208 27.4825 10.9944 27.4825 15.0001C27.4825 19.0058 27.468 19.4795 27.3953 21.0619C27.3287 22.5244 27.0839 23.3192 26.8793 23.8475C26.6066 24.5478 26.2819 25.0475 25.7573 25.5716C25.2326 26.0958 24.7322 26.421 24.0319 26.6936C23.5039 26.8996 22.7088 27.1432 21.2464 27.2096C19.6652 27.2824 19.1903 27.2969 15.1846 27.2969C11.1788 27.2969 10.7052 27.2824 9.12457 27.2096V27.2096ZM9.00037 0.09084C7.40353 0.16356 6.31237 0.41676 5.35945 0.78756C4.37257 1.17048 3.53713 1.6842 2.70229 2.51772C1.86745 3.35124 1.35505 4.188 0.97213 5.17488C0.60133 6.1284 0.34813 7.21896 0.27541 8.8158C0.20149 10.4152 0.18457 10.9265 0.18457 15C0.18457 19.0735 0.20149 19.5848 0.27541 21.1842C0.34813 22.7812 0.60133 23.8716 0.97213 24.8251C1.35505 25.8114 1.86757 26.6491 2.70229 27.4823C3.53701 28.3154 4.37257 28.8284 5.35945 29.2124C6.31417 29.5832 7.40353 29.8364 9.00037 29.9092C10.6006 29.9819 11.111 30 15.1846 30C19.2581 30 19.7694 29.9831 21.3688 29.9092C22.9657 29.8364 24.0562 29.5832 25.0097 29.2124C25.996 28.8284 26.832 28.3158 27.6668 27.4823C28.5017 26.6488 29.013 25.8114 29.397 24.8251C29.7678 23.8716 30.0222 22.781 30.0937 21.1842C30.1664 19.5836 30.1834 19.0735 30.1834 15C30.1834 10.9265 30.1664 10.4152 30.0937 8.8158C30.021 7.21884 29.7678 6.1278 29.397 5.17488C29.013 4.1886 28.5004 3.35256 27.6668 2.51772C26.8333 1.68288 25.996 1.17048 25.0109 0.78756C24.0562 0.41676 22.9656 0.16236 21.37 0.09084C19.7706 0.01812 19.2593 0 15.1858 0C11.1122 0 10.6006 0.01692 9.00037 0.09084Z" fill="black"/>
</svg>
