<svg width="32" height="31" viewBox="0 0 32 31" fill="none" xmlns="http://www.w3.org/2000/svg">
<path d="M31.488 30.6369C29.533 30.5903 27.6246 30.5903 25.6696 30.6369C25.2507 30.6369 25.1576 30.5438 25.1576 30.1249C25.1576 26.6804 25.1576 23.1894 25.1576 19.7449C25.1576 18.9536 25.1111 18.1623 24.8783 17.4175C24.1801 14.9971 21.3873 14.1127 19.3858 15.7419C18.3152 16.5797 17.8963 17.7434 17.8963 19.1398C17.8963 22.3981 17.8963 25.6564 17.8963 28.9146C17.8963 29.3336 17.8497 29.7525 17.8963 30.218C17.9428 30.5903 17.7566 30.6834 17.4308 30.6369C15.4293 30.6369 13.4743 30.6369 11.4728 30.6369C11.1004 30.6369 11.0073 30.5438 11.0073 30.1714C11.0539 27.239 11.0539 24.3065 11.0539 21.3275C11.0539 17.6968 11.0539 14.0662 11.0073 10.482C11.0073 10.0631 11.1004 9.97003 11.4728 9.97003C13.4743 9.97003 15.4293 9.97003 17.4308 9.97003C17.8032 9.97003 17.8963 10.0631 17.8963 10.4355C17.8963 11.1803 17.8963 11.925 17.8963 12.8094C18.0359 12.6698 18.0825 12.6232 18.129 12.5767C19.9443 9.92349 22.5044 9.17873 25.53 9.6442C29.021 10.2028 31.2553 12.6232 31.8138 16.347C31.9535 17.2314 32 18.1158 32 19.0001C32 22.7239 32 26.4011 32 30.1249C32 30.4972 31.9069 30.6369 31.488 30.6369Z" fill="black"/>
<path d="M7.28357 20.3034C7.28357 23.5617 7.28357 26.82 7.28357 30.0783C7.28357 30.4972 7.19047 30.6368 6.77155 30.6368C4.81658 30.5903 2.8616 30.6368 0.906632 30.6368C0.534256 30.6368 0.441162 30.5437 0.441162 30.1714C0.441162 23.6082 0.441162 16.9986 0.441162 10.4354C0.441162 10.1096 0.534256 9.96997 0.906632 9.96997C2.90815 9.96997 4.90967 9.96997 6.91119 9.96997C7.33011 9.96997 7.37666 10.1096 7.37666 10.482C7.28357 13.7403 7.28357 16.9986 7.28357 20.3034Z" fill="black"/>
<path d="M7.60939 4.57049C7.14392 6.43237 5.2355 7.50295 3.04779 7.13057C0.720441 6.7582 -0.582874 4.47739 0.254971 2.24314C0.813535 0.846731 2.1634 0.00888526 3.88563 0.0554322C6.49226 0.00888526 8.2145 2.1035 7.60939 4.57049Z" fill="black"/>
</svg>
