<svg width="38" height="31" viewBox="0 0 38 31" fill="none" xmlns="http://www.w3.org/2000/svg">
<path d="M34.1702 7.73752C34.1702 8.08696 34.1702 8.43639 34.1702 8.73591C34.1702 19.0692 26.3115 31 11.9869 31C7.56021 31 3.48168 29.7021 0 27.5056C0.596859 27.5556 1.24346 27.6055 1.84031 27.6055C5.4712 27.6055 8.8534 26.3575 11.5393 24.2609C8.10733 24.211 5.22251 21.9147 4.27749 18.8196C4.77487 18.9195 5.22251 18.9694 5.76963 18.9694C6.46597 18.9694 7.1623 18.8696 7.8089 18.6699C4.22775 17.971 1.54188 14.8261 1.54188 11.0322C1.54188 10.9823 1.54188 10.9823 1.54188 10.9324C2.58639 11.5314 3.7801 11.8808 5.0733 11.9308C2.98429 10.533 1.59162 8.13688 1.59162 5.3913C1.59162 3.94364 1.98953 2.59581 2.63613 1.44767C6.46597 6.19002 12.2356 9.28502 18.7016 9.63446C18.5524 9.08535 18.5026 8.43639 18.5026 7.83736C18.5026 3.49436 21.9843 0 26.3115 0C28.5497 0 30.589 0.94847 31.9817 2.44605C33.7723 2.09662 35.4136 1.44767 36.9555 0.549114C36.3586 2.39614 35.1152 3.89372 33.5236 4.89211C35.1152 4.69243 36.6073 4.29308 38 3.64412C37.0052 5.24155 35.712 6.63929 34.1702 7.73752Z" fill="black"/>
</svg>
